<svg id="Layer_1" data-name="Layer 1" xmlns="http://www.w3.org/2000/svg" viewBox="0 0 307.15 46.01"><defs><style>.cls-1{fill:#fff;}</style></defs><title>IFASExtWeb2013.white</title><polygon class="cls-1" points="69.58 0 69.58 42.54 71.54 42.54 71.54 0 69.58 0 69.58 0"/><polygon class="cls-1" points="44.96 34.99 44.96 24.22 54.88 24.22 54.88 17.12 44.96 17.12 44.96 7.05 55.86 7.05 55.86 10.96 63.05 10.96 63.05 0.01 34.27 0.01 34.27 7.05 36.96 7.05 36.96 34.99 34.27 34.99 34.27 42.09 47.56 42.09 47.56 34.99 44.96 34.99 44.96 34.99"/><path class="cls-1" d="M182.81,399.28V380.14h2.66v-7H172.15v7h2.6V396.9c0,7-.81,10.4-5.86,10.4S163,403.92,163,396.9V380.14h2.58v-7H152.29v7h2.64v19.13c0,4.18,0,7.6,2,10.68,2.2,3.48,6.2,5.69,12,5.69,10.26,0,13.91-5.34,13.91-16.37Z" transform="translate(-152.29 -373.09)"/><path class="cls-1" d="M312.13,397.13v-.9a8.16,8.16,0,0,0,1.63-1q.1-.69.17-2.26.13-2.85.13-4.14v-7.46q0-.43-.05-3.23a8.63,8.63,0,0,0-.23-2.29.55.55,0,0,0-.25-.25,9.25,9.25,0,0,0-2.39-.3v-1.27l3.85,0h2.19q2.27,0,5.06,0l3.37-.08c.4,0,1.2,0,2.42.07a2.39,2.39,0,0,1,.55.1l.12.21-.32,2.39c0,.16-.07,1-.16,2.39H326.9a14.88,14.88,0,0,0-.15-2.4.6.6,0,0,0-.2-.33,4,4,0,0,0-1.32-.27,29.36,29.36,0,0,0-3.21-.18q-1.47,0-3,.12a40.65,40.65,0,0,0-.23,4.79v3.43q1.13.08,2.35.08l2.75-.07a3.05,3.05,0,0,0,1.05-.12.62.62,0,0,0,.24-.35,8.47,8.47,0,0,0,.23-2.11h1.34l-.08,3.65.08,3.63h-1.34a6,6,0,0,0-.25-2.37,1,1,0,0,0-.72-.41,19.29,19.29,0,0,0-3-.18,25.44,25.44,0,0,0-2.68.12v7q0,1.16,0,2,1.34.11,3.18.12t3.3-.12a5.32,5.32,0,0,0,1.86-.34.61.61,0,0,0,.21-.3,17.58,17.58,0,0,0,.63-3h1.36a51,51,0,0,0-.37,5.4l-.21.21a29.16,29.16,0,0,1-3,.12l-2.67-.06q-3.95-.06-5.44-.06Z" transform="translate(-152.29 -373.09)"/><path class="cls-1" d="M331.24,395.84a3.09,3.09,0,0,0,1.56-.33,54,54,0,0,0,4.51-5.5l-2.16-3.58-.83-1.39a8.84,8.84,0,0,0-.88-1.14,1.74,1.74,0,0,0-.5-.39,1.37,1.37,0,0,0-.56-.11,8.45,8.45,0,0,0-.93.08l-.27-1.24c1.77-.33,3.42-.7,5-1.09a8,8,0,0,1,1.47,1.55,43.55,43.55,0,0,1,2.39,3.94q1.08-1.36,1.72-2.29l1.91-2.82,1.34,0,1.87,0v1.29a5.81,5.81,0,0,0-1.2.16,4,4,0,0,0-.94.8q-.7.7-2.32,2.66L341,388.15l2.4,4.15a31.22,31.22,0,0,0,1.74,2.79,1.58,1.58,0,0,0,.51.53,7.21,7.21,0,0,0,1.23.23v1.29q-1.23,0-3.31,0-1.2,0-1.91,0c-.25-.35-.62-.94-1.11-1.76l-1-1.62-1.28-2.22c-1.1,1.47-1.78,2.4-2,2.78q-.74,1.08-1.87,2.82l-1.44,0-1.66,0Z" transform="translate(-152.29 -373.09)"/><path class="cls-1" d="M347.89,384.5v-.75l1.49-.93a7.9,7.9,0,0,0,.7-.49v-2.22c0-.79,0-1.78-.13-3,1.07-.35,1.77-.59,2.09-.71l2.11-1,.43.33-.17,1.73-.12,1.91-.15,2.9h.55a24.8,24.8,0,0,0,3.33-.17l-.28,2.24a2,2,0,0,1-.37,0l-1.63,0h-1.61v5.54q0,2.55.05,3a1.76,1.76,0,0,0,.55,1.22,2.06,2.06,0,0,0,1.42.44,6.25,6.25,0,0,0,.9,0c.23,0,.52-.08.87-.16l.27.67-.6.6L356.33,397a5.29,5.29,0,0,1-1.15.37,5.61,5.61,0,0,1-1,.09,4.39,4.39,0,0,1-3-1A3.17,3.17,0,0,1,350,394l.08-5.48v-4.1h-.45Q348.72,384.45,347.89,384.5Z" transform="translate(-152.29 -373.09)"/><path class="cls-1" d="M373.48,394.58l-.73,1.63a11,11,0,0,1-2.8,1.23,9.77,9.77,0,0,1-2.45.28,9.88,9.88,0,0,1-2.89-.38,6.87,6.87,0,0,1-2.14-1,7,7,0,0,1-1.56-1.63,6.41,6.41,0,0,1-1-2.22,13.12,13.12,0,0,1,.28-6.63,4.42,4.42,0,0,1,.93-1.73,13.94,13.94,0,0,1,1.72-1.24,17.14,17.14,0,0,1,2-1.19,6.72,6.72,0,0,1,2.73-.51,6.57,6.57,0,0,1,3.65.93,5.1,5.1,0,0,1,2,2.37,9.25,9.25,0,0,1,.59,3.5c0,.31,0,.61,0,.9a12.28,12.28,0,0,1-1.26.3,12.66,12.66,0,0,1-1.53.23c-.83.07-1.92.11-3.28.12l-2.26,0-.48,0H364a6.12,6.12,0,0,0,1.62,4.14,5,5,0,0,0,3.68,1.52A6.88,6.88,0,0,0,371,395a11.45,11.45,0,0,0,2.09-.85Zm-3.95-6.88a6.21,6.21,0,0,0-.71-3.69,2.48,2.48,0,0,0-2.06-1,2.6,2.6,0,0,0-2.14,1.09,5.73,5.73,0,0,0-.8,3.63,24.72,24.72,0,0,0,3.27.15A16.62,16.62,0,0,0,369.54,387.7Z" transform="translate(-152.29 -373.09)"/><path class="cls-1" d="M394.79,395.9v1.23q-2.26-.12-3.69-.12-1.65,0-2.86.12l-.3-.3q0-.35.21-2.87l.08-2.72v-1.31a20.2,20.2,0,0,0-.22-3.81,2.62,2.62,0,0,0-.92-1.47,2.89,2.89,0,0,0-1.86-.56,3.18,3.18,0,0,0-1.92.56,2.55,2.55,0,0,0-1,1.12,14.48,14.48,0,0,0-.1,2.65v2.78q0,1.21.08,3a3,3,0,0,0,.13,1,.58.58,0,0,0,.21.26,2.35,2.35,0,0,0,.77.25l1.38.13v1.29q-1.8-.07-4.43-.07-3,0-4.71.07v-1.29a5.93,5.93,0,0,0,1.79-.18.62.62,0,0,0,.35-.28,3,3,0,0,0,.18-1.19l.07-1.47c0-.31,0-.81,0-1.5V389q0-1.47-.08-3.57a4.25,4.25,0,0,0-.14-1.2.54.54,0,0,0-.29-.21,9.23,9.23,0,0,0-1.89-.17v-1.29q3-.51,4-.76a13.72,13.72,0,0,0,2.14-.8l.45.2v2.67l3-2.42a5.85,5.85,0,0,1,.92-.29,5.55,5.55,0,0,1,1-.08,6.74,6.74,0,0,1,2.66.4,4.16,4.16,0,0,1,1.5,1.12,4.41,4.41,0,0,1,.86,1.52,8.91,8.91,0,0,1,.25,2.47q0,1.9,0,2.41c0,.13,0,.29,0,.48l0,1.71q0,2.81.09,3.48a1.36,1.36,0,0,0,.3.86,1.9,1.9,0,0,0,1,.24Z" transform="translate(-152.29 -373.09)"/><path class="cls-1" d="M396.91,391.91h1.33q.09,1.86.17,2.34A4.94,4.94,0,0,0,400,395.6a4.56,4.56,0,0,0,2.05.44,3.46,3.46,0,0,0,2.39-.75,2.35,2.35,0,0,0,.83-1.81,2.23,2.23,0,0,0-.27-1.15,2.41,2.41,0,0,0-1.1-.84,22.28,22.28,0,0,0-2.48-.63,12.1,12.1,0,0,1-2.78-.88,3.44,3.44,0,0,1-1.47-1.43,4.49,4.49,0,0,1-.53-2.23,4.85,4.85,0,0,1,1.72-3.8,7.28,7.28,0,0,1,5-1.51,12.39,12.39,0,0,1,2.47.23,8,8,0,0,1,2,.7l.05.17c-.07.38-.12.78-.15,1.18s-.08,1.34-.15,2.82l-1.29,0c0-.12,0-.33-.05-.62a9.89,9.89,0,0,0-.2-1.45,3.18,3.18,0,0,0-1.27-1,4.29,4.29,0,0,0-1.76-.34,3.34,3.34,0,0,0-2.18.63,1.9,1.9,0,0,0-.77,1.51,1.76,1.76,0,0,0,1.38,2,24.87,24.87,0,0,0,2.51.56,18.18,18.18,0,0,1,2.46.57,4.28,4.28,0,0,1,1.46.88,3.55,3.55,0,0,1,.84,1.32,5,5,0,0,1,.29,1.74,5.33,5.33,0,0,1-1.91,4.16,7.85,7.85,0,0,1-5.38,1.7,12.2,12.2,0,0,1-2.25-.21,19.85,19.85,0,0,1-2.67-.75l-.18-.25c.09-.85.14-1.46.17-1.81Z" transform="translate(-152.29 -373.09)"/><path class="cls-1" d="M411,397.13v-1.23a8.1,8.1,0,0,0,2.12-.29.77.77,0,0,0,.33-.59,37.33,37.33,0,0,0,.17-4.7,57.18,57.18,0,0,0-.15-5.91.65.65,0,0,0-.22-.43,6.35,6.35,0,0,0-2.25-.23v-1.26a33.89,33.89,0,0,0,3.78-.55,19.1,19.1,0,0,0,2.79-.9l.4.22q-.2,2.59-.2,4.86v5.64a22.41,22.41,0,0,0,.13,3.42.53.53,0,0,0,.26.4,7,7,0,0,0,2.17.28v1.29q-2.35-.07-5.12-.07Q412.83,397.07,411,397.13Zm4.55-24a2.43,2.43,0,0,1,1.79.75,2.57,2.57,0,0,1,0,3.6,2.52,2.52,0,0,1-3.58,0,2.56,2.56,0,0,1,0-3.6A2.43,2.43,0,0,1,415.56,373.13Z" transform="translate(-152.29 -373.09)"/><path class="cls-1" d="M422.26,389.31a10,10,0,0,1,1-4.67,6.21,6.21,0,0,1,2.88-2.78,10.1,10.1,0,0,1,4.48-.94,7.87,7.87,0,0,1,5.83,2,8,8,0,0,1,2,5.88,11.65,11.65,0,0,1-.58,3.88,7.19,7.19,0,0,1-1.56,2.64,7.26,7.26,0,0,1-2.05,1.52,9.66,9.66,0,0,1-4.15.86,7.6,7.6,0,0,1-5.78-2.13Q422.26,393.46,422.26,389.31Zm4.59-.79q0,4.41,1.29,6.29A2.81,2.81,0,0,0,430.6,396a2.67,2.67,0,0,0,2.16-.94q1.06-1.26,1.06-4.87a19.36,19.36,0,0,0-.42-4.35,4.71,4.71,0,0,0-1.24-2.53,2.92,2.92,0,0,0-2-.71,3,3,0,0,0-1.74.52,3.35,3.35,0,0,0-1.16,1.76A11.93,11.93,0,0,0,426.85,388.51Z" transform="translate(-152.29 -373.09)"/><path class="cls-1" d="M459.44,395.9v1.23q-2.26-.12-3.69-.12-1.65,0-2.86.12l-.3-.3q0-.35.21-2.87l.08-2.72v-1.31a20.16,20.16,0,0,0-.22-3.81,2.61,2.61,0,0,0-.92-1.47,2.89,2.89,0,0,0-1.86-.56,3.17,3.17,0,0,0-1.92.56,2.54,2.54,0,0,0-1,1.12,14.17,14.17,0,0,0-.1,2.65v2.78q0,1.21.08,3a3.18,3.18,0,0,0,.13,1,.59.59,0,0,0,.22.26,2.35,2.35,0,0,0,.77.25l1.38.13v1.29q-1.8-.07-4.43-.07-3,0-4.71.07v-1.29a6,6,0,0,0,1.79-.18.62.62,0,0,0,.35-.28,3,3,0,0,0,.18-1.19l.07-1.47q0-.46,0-1.5V389q0-1.47-.08-3.57a4.21,4.21,0,0,0-.14-1.2.53.53,0,0,0-.29-.21,9.25,9.25,0,0,0-1.89-.17v-1.29q3-.51,4-.76a13.63,13.63,0,0,0,2.14-.8l.45.2v2.67l3-2.42a5.8,5.8,0,0,1,.92-.29,5.53,5.53,0,0,1,1-.08,6.72,6.72,0,0,1,2.66.4,4.17,4.17,0,0,1,1.5,1.12,4.38,4.38,0,0,1,.86,1.52,8.91,8.91,0,0,1,.25,2.47c0,1.27,0,2.07,0,2.41,0,.13,0,.29,0,.48l0,1.71q0,2.81.09,3.48a1.35,1.35,0,0,0,.3.86,1.9,1.9,0,0,0,1,.24Z" transform="translate(-152.29 -373.09)"/><path class="cls-1" d="M230.75,406.68v-.55l2.15,0,.89,0,.89,0h.25v.55a2.07,2.07,0,0,0-.91.12.32.32,0,0,0-.13.23,10.59,10.59,0,0,0-.09,1.81v2.31c0,.81,0,1.31,0,1.5a2.16,2.16,0,0,0,.31,1,1.74,1.74,0,0,0,.77.62,3.2,3.2,0,0,0,1.32.24,3,3,0,0,0,1.47-.32,1.83,1.83,0,0,0,.78-.82,5.27,5.27,0,0,0,.23-1.92v-1.35c0-1.17,0-1.88,0-2.13a3.85,3.85,0,0,0-.09-1,.31.31,0,0,0-.15-.16,2.57,2.57,0,0,0-1-.13v-.55l1.43,0h.18l1.47,0v.55a1.8,1.8,0,0,0-.78.1.37.37,0,0,0-.13.2,9.64,9.64,0,0,0-.1,1.34c0,.79,0,1.42,0,1.88v1.56a8.72,8.72,0,0,1-.09,1.23,2.89,2.89,0,0,1-.35,1.08,2.77,2.77,0,0,1-.74.81,3.28,3.28,0,0,1-1.13.55,5.57,5.57,0,0,1-1.52.19,6.3,6.3,0,0,1-1.88-.27,3.06,3.06,0,0,1-1-.53,2.41,2.41,0,0,1-.62-.75,2.38,2.38,0,0,1-.26-.8q0-.24,0-1.28v-3q0-.93,0-1.67a1.36,1.36,0,0,0-.08-.42.56.56,0,0,0-.17-.17Z" transform="translate(-152.29 -373.09)"/><path class="cls-1" d="M241.46,414.83a6.23,6.23,0,0,0,.89-.07.29.29,0,0,0,.12-.08.53.53,0,0,0,.08-.24q0-.25.09-1.22,0-.55,0-1.43v-2.13l0-1.93a4.22,4.22,0,0,0,0-.63.5.5,0,0,0-.1-.21.44.44,0,0,0-.21-.11,6.59,6.59,0,0,0-.84-.09v-.56l1.24,0,1,0,.61,0q1.36,1.78,3.3,4.11,1.4,1.68,2.32,2.62v-1.53q0-3.57-.08-4.19a.46.46,0,0,0-.12-.32,2.46,2.46,0,0,0-1-.13v-.56q.81,0,1.48,0c.44,0,1,0,1.69,0v.56a2.64,2.64,0,0,0-1,.12.18.18,0,0,0-.07.1,7.51,7.51,0,0,0-.13,1.51c0,.79,0,1.37,0,1.75q0,4.41.09,5.35l-.09.06-1.13-.17q-2.14-2.39-6.07-7.18v3.3c0,.69,0,1.4,0,2.14a5.09,5.09,0,0,0,.08.93.26.26,0,0,0,.09.13.46.46,0,0,0,.22.07,6,6,0,0,0,.63.05h.13v.54l-1.43,0c-.43,0-1,0-1.75,0Z" transform="translate(-152.29 -373.09)"/><path class="cls-1" d="M257.09,406.13v.58a6.52,6.52,0,0,0-.8.05.45.45,0,0,0-.18.07.23.23,0,0,0-.07.11,1.57,1.57,0,0,0-.07.43c0,.12,0,.33,0,.65q0,1.63,0,1.75v2.67l0,1.21a3.57,3.57,0,0,0,.07.89.28.28,0,0,0,.09.14.52.52,0,0,0,.2.08,6,6,0,0,0,.79,0v.58q-1.08,0-2.31,0-1.07,0-1.9,0v-.58l.8,0a.39.39,0,0,0,.19-.08.19.19,0,0,0,.06-.11A6.19,6.19,0,0,0,254,414c0-.53.05-1,.05-1.47v-2.77q0-1.32,0-1.7a8.3,8.3,0,0,0-.08-1.05.31.31,0,0,0-.06-.13.35.35,0,0,0-.16-.08,6.87,6.87,0,0,0-.84-.06v-.58q.83,0,1.91,0C255.61,406.17,256.37,406.16,257.09,406.13Z" transform="translate(-152.29 -373.09)"/><path class="cls-1" d="M262.45,415.44l-1.08-2.64-.94-2.24q-1.11-2.64-1.36-3.15a1.62,1.62,0,0,0-.39-.58,2.19,2.19,0,0,0-.82-.12v-.58l1.94,0,2.38,0v.58a4.15,4.15,0,0,0-.81.07.38.38,0,0,0-.2.1.23.23,0,0,0-.05.16,5.89,5.89,0,0,0,.44,1.26l.27.66,0,.12,1.68,4.08,1.47-3.64.47-1.25c.2-.53.32-.88.36-1.07a.86.86,0,0,0,0-.16.31.31,0,0,0,0-.17.22.22,0,0,0-.1-.08l-.24,0-.73,0v-.58l1.68,0,1.43,0v.58a2.19,2.19,0,0,0-.75.14,6.11,6.11,0,0,0-.75,1.5l-.47,1.1-.89,2.13q-1.14,2.73-1.54,3.86Z" transform="translate(-152.29 -373.09)"/><path class="cls-1" d="M268.89,415.4V415a3.17,3.17,0,0,0,.65-.38c0-.18,0-.49.07-.9,0-.76.05-1.31.05-1.66v-3c0-.12,0-.55,0-1.29a3.61,3.61,0,0,0-.09-.91.2.2,0,0,0-.1-.1,3.55,3.55,0,0,0-1-.12v-.51h2.41l2,0,1.35,0,1,0,.22,0,0,.09-.12,1c0,.07,0,.39-.07,1h-.52a6.3,6.3,0,0,0-.06-1,.27.27,0,0,0-.08-.14,1.62,1.62,0,0,0-.53-.1,11.37,11.37,0,0,0-1.28-.07c-.39,0-.79,0-1.21,0a16.56,16.56,0,0,0-.09,1.92v1.37c.3,0,.61,0,.94,0l1.1,0a1.19,1.19,0,0,0,.42,0,.25.25,0,0,0,.1-.14,3.46,3.46,0,0,0,.09-.84h.54l0,1.46,0,1.45h-.54a2.39,2.39,0,0,0-.1-.95.39.39,0,0,0-.29-.16,7.56,7.56,0,0,0-1.19-.07,10,10,0,0,0-1.07,0v2.78c0,.31,0,.58,0,.8.36,0,.78,0,1.27,0s.92,0,1.32,0a2.13,2.13,0,0,0,.74-.13.23.23,0,0,0,.09-.12,6.65,6.65,0,0,0,.25-1.21h.54a20.66,20.66,0,0,0-.14,2.16l-.09.09c-.28,0-.69,0-1.21,0l-1.06,0-2.17,0Z" transform="translate(-152.29 -373.09)"/><path class="cls-1" d="M276.91,406.67v-.54l1.06,0,1.26,0q.7,0,1.19,0l1.36,0a6.11,6.11,0,0,1,1.56.15,1.69,1.69,0,0,1,.88.62,1.81,1.81,0,0,1,.37,1.15,2.35,2.35,0,0,1-.5,1.46,3.3,3.3,0,0,1-1.53,1c.11.2.24.4.38.61s.22.33.25.37l.08.13,1,1.53.44.66q.5.66.61.77a.7.7,0,0,0,.22.17,1.29,1.29,0,0,0,.42.05v.58l-1.48,0-1.05,0a1.52,1.52,0,0,0-.16-.38l-1.42-2.34c-.4-.67-.75-1.2-1-1.58a2.07,2.07,0,0,0-.41-.44l.07-.22a2.74,2.74,0,0,0,1.2-.16,1.55,1.55,0,0,0,.68-.68,2.18,2.18,0,0,0,.28-1.09,1.7,1.7,0,0,0-.29-1,1.56,1.56,0,0,0-.72-.56,3.32,3.32,0,0,0-1-.1,4,4,0,0,0-.63.05c0,.16,0,.52,0,1.07q0,1.88,0,2.51c0,.66,0,1.37,0,2.11q0,1.37,0,1.55a1.6,1.6,0,0,0,.07.48.26.26,0,0,0,.09.1.44.44,0,0,0,.19.07,6,6,0,0,0,.77,0v.58c-.75,0-1.52,0-2.29,0s-1.33,0-1.92,0v-.58a4.91,4.91,0,0,0,.89-.07.18.18,0,0,0,.12-.06.39.39,0,0,0,.06-.19,5.83,5.83,0,0,0,.07-.78l.05-1.94v-2.46l0-1.4a4.25,4.25,0,0,0-.08-1,.26.26,0,0,0-.1-.12A3.92,3.92,0,0,0,276.91,406.67Z" transform="translate(-152.29 -373.09)"/><path class="cls-1" d="M293,408.55h-.56a8.33,8.33,0,0,0-.07-1.09,1.7,1.7,0,0,0-.71-.52,2.78,2.78,0,0,0-1.13-.23,2,2,0,0,0-1.39.46,1.4,1.4,0,0,0-.49,1.07,1.63,1.63,0,0,0,.14.71,1.06,1.06,0,0,0,.4.43,2.83,2.83,0,0,0,.76.29l1.07.2.89.16a3.37,3.37,0,0,1,.87.34,1.83,1.83,0,0,1,.53.45,2.16,2.16,0,0,1,.32.64,2.81,2.81,0,0,1,.13.87,3.06,3.06,0,0,1-.35,1.49,3.2,3.2,0,0,1-.74.89,3.57,3.57,0,0,1-1,.6,5.16,5.16,0,0,1-1.91.32,6.25,6.25,0,0,1-1.45-.15,6.88,6.88,0,0,1-1.4-.52,9.82,9.82,0,0,0,.21-2.3h.56a7.75,7.75,0,0,0,.07,1.19,2.07,2.07,0,0,0,.86.73,2.89,2.89,0,0,0,1.33.31,2.69,2.69,0,0,0,1.12-.22,1.47,1.47,0,0,0,.71-.61,1.76,1.76,0,0,0,.22-.89,1.53,1.53,0,0,0-.16-.72,1.13,1.13,0,0,0-.49-.48,5,5,0,0,0-1.17-.37c-.8-.17-1.32-.29-1.57-.36a2.31,2.31,0,0,1-.92-.5,2,2,0,0,1-.52-.78,2.81,2.81,0,0,1-.17-1,3,3,0,0,1,.31-1.37,2.47,2.47,0,0,1,.82-1,3.42,3.42,0,0,1,1.15-.49,5.63,5.63,0,0,1,1.32-.15,7.17,7.17,0,0,1,1.36.13,4.38,4.38,0,0,1,1.14.36l.05.16a8.41,8.41,0,0,0-.14.84C293,407.74,293,408.1,293,408.55Z" transform="translate(-152.29 -373.09)"/><path class="cls-1" d="M299,406.13v.58a6.54,6.54,0,0,0-.8.05.44.44,0,0,0-.18.07.22.22,0,0,0-.07.11,1.58,1.58,0,0,0-.07.43c0,.12,0,.33,0,.65q0,1.63,0,1.75v2.67l0,1.21a3.71,3.71,0,0,0,.07.89.29.29,0,0,0,.09.14.49.49,0,0,0,.2.08,5.89,5.89,0,0,0,.79,0v.58q-1.08,0-2.3,0-1.07,0-1.9,0v-.58l.8,0a.37.37,0,0,0,.19-.08.19.19,0,0,0,.06-.11,5.63,5.63,0,0,0,.05-.62q.05-.8.05-1.47v-2.77q0-1.32,0-1.7a8.72,8.72,0,0,0-.08-1.05.25.25,0,0,0-.22-.21,6.75,6.75,0,0,0-.84-.06v-.58c.56,0,1.19,0,1.92,0S298.31,406.16,299,406.13Z" transform="translate(-152.29 -373.09)"/><path class="cls-1" d="M301.85,415.4v-.54a3.34,3.34,0,0,0,.95-.11.43.43,0,0,0,.2-.27,11,11,0,0,0,.07-1.71v-4c0-1.08,0-1.69,0-1.82h-.95c-.48,0-.9,0-1.26,0a.63.63,0,0,0-.25.05.5.5,0,0,0-.08.23,6.8,6.8,0,0,0-.1,1h-.55q0-1.36,0-1.53c0-.2,0-.4-.06-.63l.06-.07.66,0c.38,0,1.11,0,2.19,0h2.67q1.67,0,2.23,0l.62,0,.07.07a6.87,6.87,0,0,0-.07.71s0,.52,0,1.45h-.55a8.27,8.27,0,0,0-.09-1,.71.71,0,0,0-.09-.29.5.5,0,0,0-.21,0c-.36,0-.8-.05-1.31-.05H305c0,.15,0,.76,0,1.82v4a11.07,11.07,0,0,0,.07,1.72.39.39,0,0,0,.2.25,3.1,3.1,0,0,0,.95.11v.54c-.85,0-1.58-.06-2.16-.06S302.67,415.36,301.85,415.4Z" transform="translate(-152.29 -373.09)"/><path class="cls-1" d="M313.86,410.52l.83-1.35,1.26-2.21c.24-.42.39-.7.45-.83h1v.3q-.8,1.08-1.73,2.54t-1.15,1.88a2,2,0,0,0-.19.5,2.66,2.66,0,0,0,0,.5V413a12.09,12.09,0,0,0,0,1.22,1.24,1.24,0,0,0,.1.46.35.35,0,0,0,.2.12,5.05,5.05,0,0,0,.87.05v.58q-1.27,0-2.28,0c-.66,0-1.33,0-2,0v-.58a7.15,7.15,0,0,0,.88-.06.3.3,0,0,0,.18-.1,1,1,0,0,0,.07-.4c0-.5,0-.93,0-1.29v-1.26a1.89,1.89,0,0,0-.25-.63q-.62-1.14-1.33-2.25a10.91,10.91,0,0,0-1.07-1.44,2.38,2.38,0,0,0-.47-.43,2.18,2.18,0,0,0-.58,0v-.5l1.4-.28.73-.18a3,3,0,0,1,.59.4,4.06,4.06,0,0,1,.51.66,16.51,16.51,0,0,1,1,1.65C313.44,409.68,313.75,410.29,313.86,410.52Z" transform="translate(-152.29 -373.09)"/><path class="cls-1" d="M321.07,413.52a5.76,5.76,0,0,1,.28-1.71,3.87,3.87,0,0,1,.59-1.28,4.78,4.78,0,0,1,.7-.65,5,5,0,0,1,1.11-.66A3.25,3.25,0,0,1,325,409a3,3,0,0,1,1,.17,1.68,1.68,0,0,1,.71.45,1.71,1.71,0,0,1,.35.66,2.93,2.93,0,0,1,.11.84,5.45,5.45,0,0,1-.29,1.73,3.16,3.16,0,0,1-1.52,2,5.53,5.53,0,0,1-1.11.59,3.4,3.4,0,0,1-1.2.2,2.41,2.41,0,0,1-1.25-.28,1.48,1.48,0,0,1-.64-.77A3,3,0,0,1,321.07,413.52Zm1.56-.05a1.76,1.76,0,0,0,.31,1.17,1.1,1.1,0,0,0,.87.35,1.14,1.14,0,0,0,.65-.18,1.64,1.64,0,0,0,.5-.59,5.12,5.12,0,0,0,.42-1.12,7.79,7.79,0,0,0,.28-2,1.73,1.73,0,0,0-.32-1.17,1.07,1.07,0,0,0-.84-.36,1.21,1.21,0,0,0-.91.39,3.65,3.65,0,0,0-.67,1.5A8,8,0,0,0,322.64,413.46Z" transform="translate(-152.29 -373.09)"/><path class="cls-1" d="M328.61,409.9l.06-.34c.14-.06.36-.12.65-.2a5.54,5.54,0,0,0,.71-.25c0-.07.05-.18.09-.35a3.65,3.65,0,0,1,.24-.78,2.77,2.77,0,0,1,.55-.68,13.78,13.78,0,0,1,1.28-1,6.92,6.92,0,0,1,.93-.61,1.64,1.64,0,0,1,.63-.1,1.51,1.51,0,0,1,.54.11,11.77,11.77,0,0,0-.38,1.69l-.2,0a2,2,0,0,0-.54-.59.89.89,0,0,0-.48-.17.6.6,0,0,0-.32.09.68.68,0,0,0-.24.25,2.45,2.45,0,0,0-.18.49q-.24.88-.39,1.76h.15c.12,0,.42,0,.89,0,.29,0,.5,0,.64-.07l.07.1a4.21,4.21,0,0,0-.21.68h-1.68l-.73,3.19a27.07,27.07,0,0,1-.9,3.09,5.79,5.79,0,0,1-1,1.68,4.49,4.49,0,0,1-1.27,1.06,1.4,1.4,0,0,1-.65.18,1.33,1.33,0,0,1-.5-.11c.12-.33.21-.59.27-.79s.12-.42.16-.66l.21,0a1.32,1.32,0,0,0,.3.46.54.54,0,0,0,.36.14A.57.57,0,0,0,328,418a1,1,0,0,0,.28-.44,20.71,20.71,0,0,0,.61-2.67l1-5h-1.27Z" transform="translate(-152.29 -373.09)"/><path class="cls-1" d="M343.15,412.18h-.58a3.1,3.1,0,0,0-.11-1,.34.34,0,0,0-.24-.12,9.46,9.46,0,0,0-1.55-.09h-.53v.74q0,1.57,0,2.2a2.46,2.46,0,0,0,.1.74.3.3,0,0,0,.17.12,7.45,7.45,0,0,0,1,.11v.52l-2.6,0c-.37,0-1,0-1.79,0v-.55a4.49,4.49,0,0,0,.89-.06.19.19,0,0,0,.1-.07.81.81,0,0,0,.09-.34c0-.1,0-.42.05-1s0-.92,0-1.16v-2.74q0-.09-.06-1.85a3.3,3.3,0,0,0-.07-.72.21.21,0,0,0-.06-.11.5.5,0,0,0-.19-.07,6.52,6.52,0,0,0-.78-.07v-.56l2.36,0,3.19-.06a11.83,11.83,0,0,1,1.27.07l.06.09c0,.25-.09.57-.13,1s-.05.73-.06,1h-.55c0-.11,0-.34,0-.71a1.38,1.38,0,0,0,0-.35.14.14,0,0,0-.06-.07,1.83,1.83,0,0,0-.55-.15,5.75,5.75,0,0,0-1-.08l-.63,0-.7,0q-.07.66-.07,2.38v.92l1.14,0a4.23,4.23,0,0,0,1.09-.08.2.2,0,0,0,.12-.15,3.09,3.09,0,0,0,.07-.76h.58Z" transform="translate(-152.29 -373.09)"/><path class="cls-1" d="M345.13,415.4v-.34a3.58,3.58,0,0,0,.48-.26.58.58,0,0,0,.18-.13.15.15,0,0,0,0-.08c0-.11,0-.5.06-1.18s0-1.49,0-2.44q0-2.09,0-2.58a8.92,8.92,0,0,0-.08-1.42.21.21,0,0,0-.1-.12,3,3,0,0,0-1-.13v-.58q.84,0,1.92,0c.8,0,1.57,0,2.29,0v.58a3.07,3.07,0,0,0-.91.12.25.25,0,0,0-.11.13,6.08,6.08,0,0,0-.06.82q0,.73,0,1.84c0,.08,0,.72,0,1.91,0,.63,0,1.26,0,1.88s0,1,0,1.13l1.24,0a11.11,11.11,0,0,0,1.76-.12.81.81,0,0,0,.32-.08.59.59,0,0,0,.12-.25c.09-.34.17-.72.26-1.15h.55c0,.13,0,.2,0,.22l-.17,1.34c0,.42-.05.67-.06.75a2.15,2.15,0,0,1-.38.07q-.4,0-1.25,0l-1.56,0-1.52,0C346.67,415.34,346,415.36,345.13,415.4Z" transform="translate(-152.29 -373.09)"/><path class="cls-1" d="M352.68,410.87a5.59,5.59,0,0,1,.37-2.11,4.32,4.32,0,0,1,2.54-2.44,6.94,6.94,0,0,1,2.24-.35,6.68,6.68,0,0,1,2.19.34,4.12,4.12,0,0,1,2.14,1.74,4.22,4.22,0,0,1,.44,1.12,5.55,5.55,0,0,1,.15,1.35,6.16,6.16,0,0,1-.43,2.31,4.17,4.17,0,0,1-.93,1.41,4.35,4.35,0,0,1-1.39.95,6.37,6.37,0,0,1-2.45.44,5.63,5.63,0,0,1-2.56-.54,4,4,0,0,1-1.68-1.59A5.16,5.16,0,0,1,352.68,410.87Zm2-.39a6.68,6.68,0,0,0,.42,2.56,3,3,0,0,0,1.09,1.43,2.87,2.87,0,0,0,1.56.42,2.83,2.83,0,0,0,1.5-.4,2.62,2.62,0,0,0,1-1.34,6.31,6.31,0,0,0,.37-2.3,6.66,6.66,0,0,0-.2-1.7,4.08,4.08,0,0,0-.58-1.31A2.67,2.67,0,0,0,359,407a2.81,2.81,0,0,0-1.36-.29,2.9,2.9,0,0,0-1.65.46,2.57,2.57,0,0,0-1,1.34A6,6,0,0,0,354.72,410.48Z" transform="translate(-152.29 -373.09)"/><path class="cls-1" d="M363,406.67v-.54l1.06,0,1.26,0q.7,0,1.19,0l1.36,0a6.13,6.13,0,0,1,1.56.15,1.7,1.7,0,0,1,.88.62,1.82,1.82,0,0,1,.37,1.15,2.35,2.35,0,0,1-.5,1.46,3.31,3.31,0,0,1-1.53,1c.11.2.24.4.38.61s.22.33.25.37l.08.13,1,1.53.45.66q.5.66.61.77a.7.7,0,0,0,.22.17,1.32,1.32,0,0,0,.42.05v.58l-1.48,0-1.05,0a1.62,1.62,0,0,0-.16-.38L368,412.68c-.41-.67-.75-1.2-1-1.58a2.07,2.07,0,0,0-.41-.44l.07-.22a2.74,2.74,0,0,0,1.2-.16,1.56,1.56,0,0,0,.68-.68,2.16,2.16,0,0,0,.28-1.09,1.7,1.7,0,0,0-.29-1,1.55,1.55,0,0,0-.72-.56,3.32,3.32,0,0,0-1-.1,4,4,0,0,0-.63.05c0,.16,0,.52,0,1.07q0,1.88,0,2.51c0,.66,0,1.37,0,2.11,0,.91,0,1.43,0,1.55a1.64,1.64,0,0,0,.07.48.26.26,0,0,0,.09.1.45.45,0,0,0,.19.07,6.09,6.09,0,0,0,.77,0v.58q-1.13,0-2.29,0c-.69,0-1.33,0-1.91,0v-.58a4.86,4.86,0,0,0,.89-.07.21.21,0,0,0,.12-.06.48.48,0,0,0,.05-.19,6.17,6.17,0,0,0,.07-.78l.05-1.94v-2.46l0-1.4a4.27,4.27,0,0,0-.08-1,.26.26,0,0,0-.1-.12A3.92,3.92,0,0,0,363,406.67Z" transform="translate(-152.29 -373.09)"/><path class="cls-1" d="M377.1,406.13v.58a6.47,6.47,0,0,0-.8.05.43.43,0,0,0-.18.07.22.22,0,0,0-.07.11,1.53,1.53,0,0,0-.06.43c0,.12,0,.33,0,.65q0,1.63,0,1.75v2.67l0,1.21a3.48,3.48,0,0,0,.07.89.27.27,0,0,0,.09.14.5.5,0,0,0,.2.08,6,6,0,0,0,.79,0v.58q-1.08,0-2.31,0-1.07,0-1.9,0v-.58l.8,0a.4.4,0,0,0,.19-.08.19.19,0,0,0,.06-.11c0-.05,0-.26.05-.62q.05-.8.05-1.47v-2.77q0-1.32,0-1.7A8.6,8.6,0,0,0,374,407a.29.29,0,0,0-.06-.13.35.35,0,0,0-.16-.08,6.83,6.83,0,0,0-.84-.06v-.58c.56,0,1.2,0,1.92,0S376.38,406.16,377.1,406.13Z" transform="translate(-152.29 -373.09)"/><path class="cls-1" d="M378.41,415.4v-.32l.18-.11a4.37,4.37,0,0,0,.46-.29c0-.59.07-1.55.07-2.88v-1.09c0-.59,0-1.44,0-2.57A7.12,7.12,0,0,0,379,407a.24.24,0,0,0-.05-.09.34.34,0,0,0-.17-.08l-.83-.12v-.54l2.4,0,1.59,0,1.36,0a10,10,0,0,1,1.88.14,3.82,3.82,0,0,1,1.23.46,3.43,3.43,0,0,1,.88.74,3.13,3.13,0,0,1,.55.93,5.15,5.15,0,0,1,.31,1.83,5.29,5.29,0,0,1-.46,2.26,4.69,4.69,0,0,1-1.28,1.66,5.13,5.13,0,0,1-1.76,1,7.75,7.75,0,0,1-2.29.3l-2,0Zm2.64-.81a7.62,7.62,0,0,0,1.18.1,6,6,0,0,0,1.56-.19,2.83,2.83,0,0,0,.88-.4,2.93,2.93,0,0,0,.73-.78,4.15,4.15,0,0,0,.54-1.23,5.91,5.91,0,0,0,.19-1.54,5.5,5.5,0,0,0-.19-1.46,3.24,3.24,0,0,0-.63-1.24,2.46,2.46,0,0,0-1.11-.77,6.39,6.39,0,0,0-2-.24,8,8,0,0,0-1.12.09c0,.63-.07,1.81-.07,3.54V412C381,413.29,381,414.16,381.05,414.58Z" transform="translate(-152.29 -373.09)"/><path class="cls-1" d="M387.53,415.4v-.55a5.32,5.32,0,0,0,.64-.07.46.46,0,0,0,.18-.09.8.8,0,0,0,.15-.2c.05-.09.2-.42.45-1l.66-1.62,1.73-4.27.58-1.5h.94l3,6.92.41.91.27.61a.61.61,0,0,0,.13.17.41.41,0,0,0,.14.08,2.28,2.28,0,0,0,.39,0l.29,0v.55l-1.84,0-2.32,0v-.55a3.72,3.72,0,0,0,.9-.09.2.2,0,0,0,.1-.19,1.76,1.76,0,0,0-.15-.54l-.57-1.45h-3.42l-.29.79a5.2,5.2,0,0,0-.33,1.14.24.24,0,0,0,.11.22,2.83,2.83,0,0,0,.95.12v.55l-1.53,0Zm2.92-3.58,1.41,0,1.37,0-1.42-3.42Z" transform="translate(-152.29 -373.09)"/><path class="cls-1" d="M242.08,373.53V375a16.6,16.6,0,0,0-2,.13,1.16,1.16,0,0,0-.46.19.57.57,0,0,0-.19.28,4.1,4.1,0,0,0-.17,1.1c0,.29,0,.84,0,1.66q-.07,4.16-.07,4.48v6.81l.05,3.09a9.25,9.25,0,0,0,.17,2.26.67.67,0,0,0,.23.36,1.28,1.28,0,0,0,.51.2,15.74,15.74,0,0,0,2,.11v1.49q-2.76-.12-5.88-.12-2.72,0-4.85.12v-1.49q1.76-.07,2-.12a1,1,0,0,0,.48-.19.53.53,0,0,0,.16-.27q0-.2.13-1.59.13-2,.14-3.75v-7.07q0-3.36,0-4.33a21.4,21.4,0,0,0-.2-2.69.75.75,0,0,0-.16-.34.87.87,0,0,0-.41-.19,17.87,17.87,0,0,0-2.14-.14v-1.49q2.13.12,4.88.12Q239.32,373.65,242.08,373.53Z" transform="translate(-152.29 -373.09)"/><path class="cls-1" d="M259.34,389h-1.49a8,8,0,0,0-.29-2.55.85.85,0,0,0-.61-.32,25.32,25.32,0,0,0-3.94-.22l-1.35,0v1.88q0,4,.09,5.62a6.19,6.19,0,0,0,.26,1.88.81.81,0,0,0,.42.3,19.66,19.66,0,0,0,2.65.28v1.33l-6.63-.12q-1.44,0-4.55.12v-1.4a11.64,11.64,0,0,0,2.26-.15.52.52,0,0,0,.25-.19,2.07,2.07,0,0,0,.24-.88q.05-.39.13-2.44t.09-2.95v-7q0-.24-.15-4.73a8.39,8.39,0,0,0-.19-1.84.54.54,0,0,0-.16-.28,1.27,1.27,0,0,0-.48-.18,17.91,17.91,0,0,0-2-.19v-1.42l6,.12,8.14-.15a29.41,29.41,0,0,1,3.23.17l.15.24q-.18,1-.32,2.45T261,379h-1.39q0-.4-.09-1.82a3.58,3.58,0,0,0-.1-.89.32.32,0,0,0-.15-.17,4.49,4.49,0,0,0-1.41-.39,15.27,15.27,0,0,0-2.59-.19l-1.6,0-1.78.07q-.19,1.68-.19,6.07V384q2.16.12,2.92.12a11,11,0,0,0,2.76-.2.53.53,0,0,0,.32-.39,7.88,7.88,0,0,0,.19-1.93h1.49Z" transform="translate(-152.29 -373.09)"/><path class="cls-1" d="M259,397.18v-1.4a13,13,0,0,0,1.63-.18,1.18,1.18,0,0,0,.45-.24,1.88,1.88,0,0,0,.38-.51q.19-.35,1.16-2.58.44-1,1.69-4.14l4.41-10.88,1.49-3.84h2.4l7.55,17.64,1,2.32.68,1.55a1.7,1.7,0,0,0,.32.44,1,1,0,0,0,.35.2,5.12,5.12,0,0,0,1,.12l.74.09v1.4l-4.7-.12-5.93.12v-1.4a9.79,9.79,0,0,0,2.31-.23.5.5,0,0,0,.26-.48,4.36,4.36,0,0,0-.39-1.38L274.35,390h-8.71l-.74,2a12.88,12.88,0,0,0-.84,2.9.62.62,0,0,0,.27.57,7.27,7.27,0,0,0,2.41.3v1.4l-3.9-.12Zm7.45-9.14q1.59.05,3.61,0t3.49,0l-3.62-8.73Z" transform="translate(-152.29 -373.09)"/><path class="cls-1" d="M301,379.7h-1.42a21.65,21.65,0,0,0-.17-2.77,4.31,4.31,0,0,0-1.81-1.32,7,7,0,0,0-2.89-.57,5,5,0,0,0-3.55,1.16,3.59,3.59,0,0,0-1.26,2.72,4.12,4.12,0,0,0,.37,1.81,2.71,2.71,0,0,0,1,1.1,7.33,7.33,0,0,0,1.94.75q1,.2,2.73.51t2.27.42a8.67,8.67,0,0,1,2.21.85,4.63,4.63,0,0,1,1.34,1.15,5.4,5.4,0,0,1,.82,1.64,7.13,7.13,0,0,1,.32,2.22,7.81,7.81,0,0,1-.9,3.8,8.07,8.07,0,0,1-1.88,2.26,8.92,8.92,0,0,1-2.47,1.53,13.09,13.09,0,0,1-4.87.81,16,16,0,0,1-3.7-.39,17.76,17.76,0,0,1-3.57-1.34,24.62,24.62,0,0,0,.54-5.87h1.42a21,21,0,0,0,.19,3,5.32,5.32,0,0,0,2.2,1.85,7.34,7.34,0,0,0,3.4.8,6.89,6.89,0,0,0,2.87-.57,3.8,3.8,0,0,0,1.83-1.57,4.52,4.52,0,0,0,.57-2.27,3.91,3.91,0,0,0-.4-1.83,2.91,2.91,0,0,0-1.24-1.22,13.08,13.08,0,0,0-3-.95q-3.06-.64-4-.93a5.87,5.87,0,0,1-2.34-1.27,5.17,5.17,0,0,1-1.33-2,7.16,7.16,0,0,1-.44-2.53,7.72,7.72,0,0,1,.79-3.49,6.27,6.27,0,0,1,2.1-2.48,8.7,8.7,0,0,1,2.94-1.26,14.82,14.82,0,0,1,3.36-.38,18.57,18.57,0,0,1,3.47.32,11.55,11.55,0,0,1,2.92.93l.13.4a20.16,20.16,0,0,0-.35,2.15Q301,378,301,379.7Z" transform="translate(-152.29 -373.09)"/></svg>